<?xml version="1.0" ?><!DOCTYPE svg  PUBLIC '-//W3C//DTD SVG 1.1//EN'  'http://www.w3.org/Graphics/SVG/1.1/DTD/svg11.dtd'><svg enable-background="new 0 0 128 128" id="Слой_1" version="1.1" viewBox="0 0 128 128" xml:space="preserve" xmlns="http://www.w3.org/2000/svg" xmlns:xlink="http://www.w3.org/1999/xlink"><g><g><path d="M50.746,110c-9.113,0-16.526-7.414-16.526-16.526V68.631c0-6.9,4.35-13.136,10.825-15.516    c0.519-0.19,1.094,0.074,1.284,0.594c0.19,0.519-0.075,1.093-0.593,1.283c-5.691,2.092-9.515,7.573-9.515,13.639v24.843    c0,8.01,6.517,14.526,14.526,14.526s14.526-6.517,14.526-14.526V68.631c0-6.47-4.342-12.218-10.56-13.979    c-0.531-0.15-0.84-0.703-0.69-1.234c0.151-0.531,0.703-0.843,1.235-0.689c7.074,2.003,12.015,8.542,12.015,15.902v24.843    C67.272,102.586,59.859,110,50.746,110z" fill="#323638"/></g><g><g><path d="M59.757,71.477c-0.09,0-0.182-0.012-0.274-0.038c-1.519-0.432-2.971-1.081-4.318-1.931     c-3.733-2.356-6.324-6.026-7.297-10.332c-0.973-4.307-0.21-8.733,2.146-12.466l13.264-21.006     C68.143,18,78.371,15.689,86.075,20.555c3.733,2.357,6.324,6.026,7.297,10.332s0.21,8.732-2.146,12.466L77.962,64.357     c-1.857,2.941-4.538,5.185-7.75,6.487c-0.513,0.207-1.096-0.039-1.303-0.551c-0.208-0.512,0.039-1.095,0.551-1.303     c2.823-1.145,5.179-3.116,6.811-5.702l13.264-21.005c2.072-3.28,2.742-7.172,1.887-10.957c-0.855-3.784-3.133-7.01-6.414-9.081     C78.234,17.969,69.245,20,64.969,26.772L51.706,47.778c-2.072,3.28-2.742,7.172-1.887,10.956     c0.855,3.785,3.132,7.011,6.413,9.082c1.185,0.748,2.463,1.319,3.798,1.698c0.531,0.15,0.839,0.704,0.688,1.235     C60.593,71.189,60.192,71.477,59.757,71.477z" fill="#323638"/></g></g></g></svg>