<?xml version="1.0" encoding="UTF-8" standalone="no"?>
<!-- Generator: Adobe Illustrator 21.0.2, SVG Export Plug-In . SVG Version: 6.00 Build 0)  -->

<svg
   xmlns:dc="http://purl.org/dc/elements/1.1/"
   xmlns:cc="http://creativecommons.org/ns#"
   xmlns:rdf="http://www.w3.org/1999/02/22-rdf-syntax-ns#"
   xmlns:svg="http://www.w3.org/2000/svg"
   xmlns="http://www.w3.org/2000/svg"
   xmlns:sodipodi="http://sodipodi.sourceforge.net/DTD/sodipodi-0.dtd"
   xmlns:inkscape="http://www.inkscape.org/namespaces/inkscape"
   version="1.1"
   id="Layer_1"
   x="0px"
   y="0px"
   width="499.99997"
   height="500"
   viewBox="0 0 499.99997 500"
   xml:space="preserve"
   sodipodi:docname="logo.svg"
   inkscape:version="0.92.1 r15371"><metadata
     id="metadata3770"><rdf:RDF><cc:Work
         rdf:about=""><dc:format>image/svg+xml</dc:format><dc:type
           rdf:resource="http://purl.org/dc/dcmitype/StillImage" /></cc:Work></rdf:RDF></metadata><defs
     id="defs3768" /><sodipodi:namedview
     pagecolor="#ffffff"
     bordercolor="#666666"
     borderopacity="1"
     objecttolerance="10"
     gridtolerance="10"
     guidetolerance="10"
     inkscape:pageopacity="0"
     inkscape:pageshadow="2"
     inkscape:window-width="1918"
     inkscape:window-height="1066"
     id="namedview3766"
     showgrid="false"
     inkscape:zoom="0.78518519"
     inkscape:cx="249.99998"
     inkscape:cy="250"
     inkscape:window-x="0"
     inkscape:window-y="1092"
     inkscape:window-maximized="0"
     inkscape:current-layer="Layer_1" /><style
     type="text/css"
     id="style3745">
	.st0{fill:#32034A;}
</style><g
     id="g3763"
     transform="matrix(1,0,0,-1,-710.00002,790)"><path
       class="st0"
       d="m 959.77991,290 v 8 c 41.76819,0 83.07119,10.85983 119.44369,31.40527 37.4527,21.15564 68.6844,52.1442 90.3184,89.61563 16.3339,28.29102 26.6377,58.93027 30.6252,91.06656 3.8522,31.04438 1.6809,62.17792 -6.4535,92.53589 -8.1344,30.3581 -21.8208,58.40619 -40.679,83.36536 -19.5215,25.83703 -43.7646,47.21948 -72.0556,63.55328 C 1044.2003,770.77618 1002.4472,782 960.23334,782 c -41.7721,0 -83.07782,-10.85919 -119.45172,-31.40356 -37.45526,-21.15516 -68.6886,-52.14435 -90.32361,-89.61738 -16.3338,-28.29095 -26.63764,-58.93023 -30.62531,-91.06652 -3.85217,-31.04438 -1.68091,-62.17789 6.45355,-92.53589 8.1344,-30.3581 21.82087,-58.40619 40.67902,-83.36539 19.52155,-25.83697 43.76453,-47.21945 72.05566,-63.55325 C 875.79572,309.2261 917.54901,298.00226 959.76703,298 l 0.0129,-8 m -0.0134,3e-5 c -42.40149,0.002 -85.38592,10.80542 -124.74561,33.52979 C 715.46765,392.55383 674.50574,545.42603 743.52985,664.97906 789.82947,745.17261 873.84247,790 960.2334,790 c 42.4015,0 85.386,-10.80548 124.7457,-33.52985 119.5532,-69.02398 160.5152,-221.89618 91.4911,-341.44925 -46.2997,-80.19345 -130.3127,-125.02551 -216.70366,-125.02087 z"
       id="path3747"
       inkscape:connector-curvature="0"
       style="fill:#32034a" /><path
       class="st0"
       d="m 979.69836,376.76935 c 34.35574,0 68.34084,9.1369 98.28114,26.42291 23.0315,13.29724 42.7663,30.703 58.6564,51.73358 15.3512,20.3176 26.4926,43.15067 33.1148,67.86511 6.6222,24.71442 8.39,50.05915 5.2543,75.33033 -3.2458,26.15796 -11.6339,51.09924 -24.9311,74.1308 -17.6106,30.50244 -43.0356,55.72796 -73.5259,72.94927 -29.6148,16.72675 -63.2413,25.568 -97.24447,25.568 -34.36127,0 -68.34925,-9.1369 -98.28949,-26.42291 -23.03156,-13.29725 -42.76648,-30.70301 -58.65643,-51.73359 -15.35126,-20.31756 -26.49268,-43.15069 -33.11493,-67.86511 -6.62214,-24.71441 -8.38996,-50.05914 -5.25422,-75.33032 3.24585,-26.15796 11.63392,-51.09924 24.93116,-74.13083 17.61035,-30.50192 43.03509,-55.7269 73.52581,-72.94815 29.6142,-16.72601 63.24091,-25.56769 97.24921,-25.56909 h 0.004 m -0.008,-10 c -71.52484,0.003 -141.09796,37.12314 -179.4306,103.51724 -57.15192,98.99008 -23.23547,225.56815 75.75464,282.72006 32.59588,18.81928 68.17468,27.7627 103.28949,27.7627 71.52463,0 141.09783,-37.12317 179.43053,-103.51727 57.1519,-98.99006 23.2354,-225.56815 -75.7546,-282.72007 -32.596,-18.81924 -68.1747,-27.7641 -103.28946,-27.76266 z"
       id="path3749"
       inkscape:connector-curvature="0"
       style="fill:#32034a" /><path
       class="st0"
       d="m 1012.4002,440.79352 c 40.5933,0 78.757,15.80795 107.4609,44.51181 28.7037,28.70376 44.5117,66.86746 44.5117,107.46084 0,40.59339 -15.808,78.75708 -44.5117,107.46088 -28.7039,28.70386 -66.8676,44.51178 -107.4609,44.51178 -40.59338,0 -78.75701,-15.80792 -107.46087,-44.51178 -28.7038,-28.7038 -44.51172,-66.86749 -44.51172,-107.46088 0,-40.59338 15.80792,-78.75708 44.51172,-107.46084 28.70386,-28.70386 66.86749,-44.51181 107.46087,-44.51181 m 0,-12 c -90.55956,0 -163.97259,73.41308 -163.97259,163.97265 0,90.55957 73.41303,163.97266 163.97259,163.97266 90.5596,0 163.9726,-73.41309 163.9726,-163.97266 0,-90.55957 -73.413,-163.97265 -163.9726,-163.97265 z"
       id="path3751"
       inkscape:connector-curvature="0"
       style="fill:#32034a" /><path
       class="st0"
       d="m 1049.2876,485.76617 c 18.4736,0 36.7418,4.80329 52.8295,13.89057 16.5521,9.34973 30.3576,23.04993 39.9242,39.61957 14.2876,24.74694 18.0831,53.57666 10.6873,81.17828 -7.3958,27.60168 -25.0977,50.67114 -49.8447,64.9588 -16.2634,9.38965 -34.7208,14.35278 -53.3769,14.35278 -18.4759,0 -36.7455,-4.8031 -52.83372,-13.88995 -16.55328,-9.34943 -30.35962,-23.0498 -39.92645,-39.62012 -14.28772,-24.74701 -18.08319,-53.57666 -10.68738,-81.17834 7.39587,-27.60169 25.09765,-50.67114 49.84466,-64.9588 16.26169,-9.38864 34.71929,-14.35172 53.38069,-14.35279 v 0 m -0.01,-14 c -20.5223,0.001 -41.3268,5.22983 -60.37699,16.22843 -57.8637,33.40762 -77.68933,107.39773 -44.28161,165.2615 22.40906,38.8136 63.0713,60.51007 104.8845,60.51007 20.5223,0 41.3267,-5.22979 60.3769,-16.22845 57.8638,-33.40759 77.6893,-107.39771 44.2817,-165.26141 -22.4091,-38.81366 -63.0714,-60.51236 -104.8845,-60.51014 z"
       id="path3753"
       inkscape:connector-curvature="0"
       style="fill:#32034a" /><g
       id="g3761"><path
         class="st0"
         d="m 1080.6415,512.76917 c 10.8016,0 21.4928,2.87622 30.9177,8.31774 14.3391,8.27863 24.5961,21.64576 28.8814,37.63886 4.2854,15.99316 2.0861,32.69781 -6.1926,47.03693 -11.0421,19.12548 -31.6397,31.00647 -53.755,31.00647 -10.8035,0 -21.4958,-2.87623 -30.9207,-8.31775 -14.339,-8.27863 -24.596,-21.64569 -28.8814,-37.6388 -4.2853,-15.99322 -2.0861,-32.69787 6.1925,-47.03699 11.0415,-19.12451 31.6395,-31.00555 53.7564,-31.00646 v 0 m 0,-15.99997 c -26.9514,10e-4 -53.1673,13.9884 -67.6115,39.00643 -21.53548,37.30066 -8.7553,84.99677 28.5453,106.53223 12.2824,7.09131 25.6891,10.46131 38.9206,10.46131 26.9514,0 53.1674,-13.98841 67.6116,-39.00647 21.5355,-37.3006 8.7554,-84.99671 -28.5453,-106.53223 -12.2825,-7.09131 -25.689,-10.46182 -38.9207,-10.46127 z"
         id="path3755"
         inkscape:connector-curvature="0"
         style="fill:#32034a" /><path
         class="st0"
         d="m 1080.6415,512.76917 c 10.8016,0 21.4928,2.87622 30.9177,8.31774 14.3391,8.27863 24.5961,21.64576 28.8814,37.63886 4.2854,15.99316 2.0861,32.69781 -6.1926,47.03693 -11.0421,19.12548 -31.6397,31.00647 -53.755,31.00647 -10.8035,0 -21.4958,-2.87623 -30.9207,-8.31775 -14.339,-8.27863 -24.596,-21.64569 -28.8814,-37.6388 -4.2853,-15.99322 -2.0861,-32.69787 6.1925,-47.03699 11.0415,-19.12451 31.6395,-31.00555 53.7564,-31.00646 v 0 m 0,-15.99997 c -26.9514,10e-4 -53.1673,13.9884 -67.6115,39.00643 -21.53548,37.30066 -8.7553,84.99677 28.5453,106.53223 12.2824,7.09131 25.6891,10.46131 38.9206,10.46131 26.9514,0 53.1674,-13.98841 67.6116,-39.00647 21.5355,-37.3006 8.7554,-84.99671 -28.5453,-106.53223 -12.2825,-7.09131 -25.689,-10.46182 -38.9207,-10.46127 z"
         id="path3757"
         inkscape:connector-curvature="0"
         style="fill:#32034a" /><path
         class="st0"
         d="m 1080.5658,574.76917 c 16.7374,9.66339 38.1395,3.92871 47.8029,-12.80872 9.6633,-16.73743 3.9287,-38.13953 -12.8088,-47.80292 -16.7374,-9.66336 -38.1395,-3.92868 -47.8029,12.80878 -9.6634,16.73743 -3.9286,38.13952 12.8088,47.80286 z"
         id="path3759"
         inkscape:connector-curvature="0"
         style="fill:#32034a" /></g></g></svg>