<?xml version="1.0" encoding="utf-8"?>
<!-- Generator: Adobe Illustrator 21.0.2, SVG Export Plug-In . SVG Version: 6.00 Build 0)  -->
<svg version="1.1" baseProfile="basic" id="Layer_1"
	 xmlns="http://www.w3.org/2000/svg" xmlns:xlink="http://www.w3.org/1999/xlink" x="0px" y="0px" width="1920px" height="1080px"
	 viewBox="0 0 1920 1080" xml:space="preserve">
<style type="text/css">
	.st0{fill:#32034A;}
</style>
<g>
	<path class="st0" d="M959.7799072,290v8c41.7681885,0,83.071167,10.8598328,119.4437256,31.4052734
		c37.4526367,21.1556396,68.6843262,52.1441956,90.3183594,89.6156311
		c16.3338623,28.2910156,26.6376953,58.9302673,30.6252441,91.0665588
		c3.8521729,31.0443726,1.6809082,62.1779175-6.4534912,92.5358887
		c-8.1343994,30.3580933-21.8208008,58.406189-40.6790771,83.3653564
		c-19.5214844,25.8370361-43.7645264,47.2194824-72.055542,63.5532837C1044.2003174,770.7761841,1002.4472046,782,960.2333374,782
		c-41.7720947,0-83.0778198-10.8591919-119.4517212-31.4035645c-37.4552612-21.1551514-68.6885986-52.1443481-90.3236084-89.6173706
		c-16.3338013-28.2909546-26.6376343-58.9302368-30.6253052-91.0665283
		c-3.8521729-31.0443726-1.6809082-62.177887,6.4535522-92.5358887c8.1343994-30.3580933,21.8208618-58.406189,40.6790161-83.365387
		c19.5215454-25.8369751,43.7645264-47.2194519,72.0556641-63.5532532
		C875.7957153,309.2261047,917.5490112,298.0022583,959.7670288,298L959.7799072,290 M959.7665405,290.0000305
		c-42.4014893,0.0022583-85.3859253,10.8054199-124.7456055,33.5297852
		c-119.5532837,69.0240173-160.5151978,221.8962097-91.4910889,341.4492493
		C789.8294678,745.1726074,873.8424683,790,960.2333984,790c42.4014893,0,85.3859863-10.805481,124.7457275-33.5298462
		c119.5532227-69.0239868,160.5151367-221.8961792,91.4910889-341.4492493
		C1130.1705322,334.8274536,1046.1574707,289.9953918,959.7665405,290.0000305L959.7665405,290.0000305z"/>
	<path class="st0" d="M979.6983643,376.7693481c34.3557739,0,68.3408203,9.1369019,98.2811279,26.4229126
		c23.0314941,13.2972412,42.7663574,30.7030029,58.6563721,51.7335815
		c15.3511963,20.3175964,26.4926758,43.1506653,33.1148682,67.8651123
		c6.6221924,24.7144165,8.3900146,50.0591431,5.2542725,75.3303223
		c-3.2458496,26.157959-11.6339111,51.0992432-24.9311523,74.1307983
		c-17.6105957,30.5024414-43.0355225,55.7279663-73.5258789,72.9492798
		c-29.6147461,16.7267456-63.241272,25.5679932-97.2444458,25.5679932c-34.3612671,0-68.3492432-9.1369019-98.2894897-26.4229126
		c-23.0315552-13.2972412-42.7664795-30.7030029-58.6564331-51.7335815
		c-15.3512573-20.3175659-26.4926758-43.1506958-33.1149292-67.8651123
		c-6.6221313-24.7144165-8.3899536-50.0591431-5.2542114-75.3303223
		c3.2458496-26.157959,11.6339111-51.0992432,24.9311523-74.1308289
		c17.6103516-30.5019226,43.0350952-55.7268982,73.5258179-72.9481506
		c29.6141968-16.7260132,63.2409058-25.567688,97.2492065-25.5690918H979.6983643 M979.6900024,366.7693481
		c-71.5248413,0.0029297-141.0979614,37.1231384-179.430603,103.5172424
		c-57.1519165,98.9900818-23.2354736,225.5681458,75.7546387,282.7200623
		c32.5958862,18.8192749,68.1746826,27.7626953,103.2894897,27.7626953c71.5247192,0,141.0978394-37.1231689,179.430603-103.5172729
		c57.1518555-98.9900513,23.2353516-225.5681458-75.7546387-282.7200623
		C1050.3835449,375.7127686,1014.8048096,366.7679138,979.6900024,366.7693481L979.6900024,366.7693481z"/>
	<path class="st0" d="M1012.4002075,440.7935181c40.5933228,0,78.757019,15.8079529,107.4608765,44.5118103
		c28.7037354,28.7037659,44.5117188,66.8674622,44.5117188,107.4608459s-15.8079834,78.7570801-44.5117188,107.4608765
		c-28.7038574,28.7038574-66.8675537,44.5117798-107.4608765,44.5117798c-40.5933838,0-78.757019-15.8079224-107.4608765-44.5117798
		c-28.7037964-28.7037964-44.5117188-66.8674927-44.5117188-107.4608765s15.8079224-78.7570801,44.5117188-107.4608459
		C933.6431885,456.6014709,971.8068237,440.7935181,1012.4002075,440.7935181 M1012.4002075,428.7935181
		c-90.5595703,0-163.9725952,73.4130859-163.9725952,163.9726563s73.4130249,163.9726563,163.9725952,163.9726563
		s163.9725952-73.4130859,163.9725952-163.9726563S1102.9598389,428.7935181,1012.4002075,428.7935181L1012.4002075,428.7935181z"/>
	<path class="st0" d="M1049.2875977,485.7661743c18.4736328,0,36.7418213,4.8032837,52.8294678,13.890564
		c16.552124,9.3497314,30.357666,23.0499268,39.9241943,39.6195679
		c14.2875977,24.7469482,18.0831299,53.5766602,10.6873779,81.1782837
		c-7.395874,27.6016846-25.0977783,50.6711426-49.8447266,64.9588013
		c-16.2634277,9.3896484-34.7208252,14.3527832-53.3769531,14.3527832c-18.4758301,0-36.7454224-4.8031006-52.8336792-13.8899536
		c-16.5532837-9.3494263-30.3596191-23.0498047-39.9264526-39.6201172
		c-14.2877197-24.7470093-18.0831909-53.5766602-10.6873779-81.1783447
		c7.395874-27.6016846,25.0976563-50.6711426,49.8446655-64.9588013
		c16.2616577-9.3886414,34.7192993-14.3517151,53.3806763-14.3527832H1049.2875977 M1049.2811279,471.7661743
		c-20.5223389,0.0010986-41.3268433,5.2298279-60.3770142,16.2284241
		c-57.8637085,33.4076233-77.6893311,107.3977356-44.2816162,165.2615051
		c22.4090576,38.8135986,63.0712891,60.5100708,104.8844604,60.5100708c20.5223389,0,41.3267822-5.2297974,60.3769531-16.2284546
		c57.8637695-33.4075928,77.6893311-107.3977051,44.2817383-165.2614136
		C1131.7564697,493.4626465,1091.0942383,471.7639465,1049.2811279,471.7661743L1049.2811279,471.7661743z"/>
	<g>
		<path class="st0" d="M1080.6414795,512.769165c10.8016357,0,21.4927979,2.8762207,30.9177246,8.317749
			c14.3391113,8.2786255,24.5960693,21.645752,28.8813477,37.638855
			c4.2854004,15.9931641,2.0861816,32.6978149-6.1925049,47.0369263
			c-11.0421143,19.1254883-31.6397705,31.0064697-53.7550049,31.0064697c-10.8035889,0-21.4958496-2.8762207-30.9207764-8.317749
			c-14.3389893-8.2786255-24.5959473-21.6456909-28.8813477-37.6387939
			c-4.2853394-15.9932251-2.0861206-32.697876,6.1925049-47.0369873
			c11.0415039-19.1245117,31.6395264-31.0055542,53.7563477-31.0064697H1080.6414795 M1080.6385498,496.7691956
			c-26.951416,0.0010986-53.1673584,13.9884033-67.6115112,39.0064392
			c-21.5355225,37.3006592-8.7553711,84.9967651,28.5452271,106.5322266
			c12.2824707,7.0913086,25.6890869,10.4613037,38.9206543,10.4613037c26.951416,0,53.1673584-13.9884033,67.6115723-39.0064697
			c21.5355225-37.3005981,8.7553711-84.9967041-28.5452881-106.5322266
			C1107.2767334,500.1391602,1093.8702393,496.7686462,1080.6385498,496.7691956L1080.6385498,496.7691956z"/>
		<path class="st0" d="M1080.6414795,512.769165c10.8016357,0,21.4927979,2.8762207,30.9177246,8.317749
			c14.3391113,8.2786255,24.5960693,21.645752,28.8813477,37.638855
			c4.2854004,15.9931641,2.0861816,32.6978149-6.1925049,47.0369263
			c-11.0421143,19.1254883-31.6397705,31.0064697-53.7550049,31.0064697c-10.8035889,0-21.4958496-2.8762207-30.9207764-8.317749
			c-14.3389893-8.2786255-24.5959473-21.6456909-28.8813477-37.6387939
			c-4.2853394-15.9932251-2.0861206-32.697876,6.1925049-47.0369873
			c11.0415039-19.1245117,31.6395264-31.0055542,53.7563477-31.0064697H1080.6414795 M1080.6385498,496.7691956
			c-26.951416,0.0010986-53.1673584,13.9884033-67.6115112,39.0064392
			c-21.5355225,37.3006592-8.7553711,84.9967651,28.5452271,106.5322266
			c12.2824707,7.0913086,25.6890869,10.4613037,38.9206543,10.4613037c26.951416,0,53.1673584-13.9884033,67.6115723-39.0064697
			c21.5355225-37.3005981,8.7553711-84.9967041-28.5452881-106.5322266
			C1107.2767334,500.1391602,1093.8702393,496.7686462,1080.6385498,496.7691956L1080.6385498,496.7691956z"/>
		<path class="st0" d="M1080.5657959,574.769165c16.7374268,9.6633911,38.1395264,3.9287109,47.8028564-12.8087158
			s3.9287109-38.1395264-12.8087158-47.8029175c-16.7374268-9.6633606-38.1395264-3.9286804-47.8029785,12.8087769
			C1058.0936279,543.7037354,1063.8283691,565.105835,1080.5657959,574.769165L1080.5657959,574.769165z"/>
	</g>
</g>
</svg>
